<svg width="108" height="19" viewBox="0 0 108 19" fill="none" xmlns="http://www.w3.org/2000/svg">
<path d="M3.848 1.2V18H2.288V1.2H3.848ZM10.328 17.256V18H3.776V17.256H10.328ZM11.792 14.112L10.4 18H6.416L7.28 17.256C8.128 17.256 8.816 17.128 9.344 16.872C9.888 16.6 10.328 16.224 10.664 15.744C11 15.264 11.296 14.72 11.552 14.112H11.792ZM2.36 16.248V18H0.44V17.76C0.44 17.76 0.488 17.76 0.584 17.76C0.696 17.76 0.752 17.76 0.752 17.76C1.168 17.76 1.52 17.616 1.808 17.328C2.112 17.024 2.272 16.664 2.288 16.248H2.36ZM2.36 2.952H2.288C2.272 2.536 2.112 2.184 1.808 1.896C1.52 1.592 1.168 1.44 0.752 1.44C0.752 1.44 0.696 1.44 0.584 1.44C0.488 1.44 0.44 1.44 0.44 1.44V1.2H2.36V2.952ZM3.776 2.952V1.2H5.696V1.44C5.68 1.44 5.624 1.44 5.528 1.44C5.432 1.44 5.384 1.44 5.384 1.44C4.968 1.44 4.608 1.592 4.304 1.896C4.016 2.184 3.864 2.536 3.848 2.952H3.776ZM16.4846 3.6V12.672C16.4846 14.224 16.8766 15.448 17.6606 16.344C18.4606 17.24 19.5486 17.688 20.9246 17.688C22.4446 17.688 23.6366 17.264 24.5006 16.416C25.3806 15.568 25.8206 14.408 25.8206 12.936V3.6H26.9246V12.936C26.9246 14.6 26.3886 15.92 25.3166 16.896C24.2606 17.856 22.8046 18.336 20.9486 18.336C19.1086 18.336 17.6446 17.856 16.5566 16.896C15.4846 15.936 14.9486 14.624 14.9486 12.96V3.6H16.4846ZM14.9966 3.6V4.872H14.9486C14.9326 4.584 14.8126 4.344 14.5886 4.152C14.3806 3.944 14.1166 3.84 13.7966 3.84C13.7966 3.84 13.7326 3.84 13.6046 3.84C13.4926 3.84 13.4366 3.84 13.4366 3.84V3.6H14.9966ZM17.9966 3.6V3.84C17.9966 3.84 17.9326 3.84 17.8046 3.84C17.6926 3.84 17.6366 3.84 17.6366 3.84C17.3326 3.84 17.0606 3.944 16.8206 4.152C16.5966 4.344 16.4846 4.584 16.4846 4.872H16.4366V3.6H17.9966ZM25.8686 3.6V4.872H25.8206C25.8206 4.584 25.7086 4.344 25.4846 4.152C25.2606 3.944 24.9886 3.84 24.6686 3.84C24.6686 3.84 24.6046 3.84 24.4766 3.84C24.3646 3.84 24.3086 3.84 24.3086 3.84V3.6H25.8686ZM28.4366 3.6V3.84C28.4366 3.84 28.3726 3.84 28.2446 3.84C28.1326 3.84 28.0766 3.84 28.0766 3.84C27.7726 3.84 27.5086 3.944 27.2846 4.152C27.0606 4.344 26.9406 4.584 26.9246 4.872H26.8766V3.6H28.4366ZM31.8733 3.24L45.1693 15.768L45.4093 18.336L32.1133 5.736L31.8733 3.24ZM31.9213 16.512V18H30.1213V17.76C30.1213 17.76 30.1853 17.76 30.3133 17.76C30.4573 17.76 30.5293 17.76 30.5293 17.76C30.8973 17.76 31.2093 17.64 31.4653 17.4C31.7213 17.16 31.8493 16.864 31.8493 16.512H31.9213ZM32.9293 16.512C32.9293 16.864 33.0573 17.16 33.3133 17.4C33.5853 17.64 33.8973 17.76 34.2493 17.76C34.2493 17.76 34.3133 17.76 34.4413 17.76C34.5853 17.76 34.6573 17.76 34.6573 17.76V18H32.8573V16.512H32.9293ZM31.8733 3.24L32.9053 4.584L32.9293 18H31.8493V6.24C31.8493 5.424 31.8093 4.72 31.7293 4.128C31.6653 3.536 31.6333 3.24 31.6333 3.24H31.8733ZM45.4093 3.6V15.264C45.4093 15.776 45.4253 16.272 45.4573 16.752C45.4893 17.216 45.5213 17.6 45.5533 17.904C45.6013 18.192 45.6253 18.336 45.6253 18.336H45.4093L44.3533 17.064V3.6H45.4093ZM45.3373 5.088V3.6H47.1373V3.84C47.1373 3.84 47.0653 3.84 46.9213 3.84C46.7933 3.84 46.7293 3.84 46.7293 3.84C46.3773 3.84 46.0653 3.96 45.7933 4.2C45.5373 4.44 45.4093 4.736 45.4093 5.088H45.3373ZM44.3533 5.088C44.3373 4.736 44.2013 4.44 43.9453 4.2C43.6893 3.96 43.3773 3.84 43.0093 3.84C43.0093 3.84 42.9373 3.84 42.7933 3.84C42.6653 3.84 42.6013 3.84 42.6013 3.84V3.6H44.4013V5.088H44.3533ZM56.0484 3.264L62.6484 17.856H60.7524L55.6404 5.4L56.0484 3.264ZM51.4164 16.248C51.2404 16.728 51.2644 17.104 51.4884 17.376C51.7124 17.632 51.9684 17.76 52.2564 17.76H52.4484V18H47.8644V17.76C47.8644 17.76 47.8964 17.76 47.9604 17.76C48.0244 17.76 48.0564 17.76 48.0564 17.76C48.3924 17.76 48.7364 17.648 49.0884 17.424C49.4404 17.184 49.7444 16.792 50.0004 16.248H51.4164ZM56.0484 3.264L56.2164 4.92L50.7204 17.928H49.2084L54.8964 5.736C54.8964 5.736 54.9364 5.64 55.0164 5.448C55.1124 5.256 55.2164 5.024 55.3284 4.752C55.4564 4.464 55.5684 4.184 55.6644 3.912C55.7604 3.64 55.8164 3.424 55.8324 3.264H56.0484ZM58.8804 12.408V13.128H52.5204V12.408H58.8804ZM60.1044 16.248H61.9284C62.1684 16.792 62.4644 17.184 62.8164 17.424C63.1684 17.648 63.5044 17.76 63.8244 17.76C63.8244 17.76 63.8564 17.76 63.9204 17.76C63.9844 17.76 64.0164 17.76 64.0164 17.76V18H59.0964V17.76H59.2884C59.5604 17.76 59.8084 17.632 60.0324 17.376C60.2564 17.104 60.2804 16.728 60.1044 16.248ZM77.4344 0.863999C77.9784 0.863999 78.5064 0.935999 79.0184 1.08C79.5304 1.224 80.0024 1.424 80.4344 1.68C80.8664 1.92 81.2264 2.216 81.5144 2.568L81.0824 5.28H80.8424C80.8424 4.512 80.6984 3.856 80.4104 3.312C80.1224 2.752 79.7224 2.328 79.2104 2.04C78.7144 1.736 78.1224 1.584 77.4344 1.584C76.5224 1.584 75.7624 1.904 75.1544 2.544C74.5624 3.184 74.2664 3.992 74.2664 4.968C74.2664 5.976 74.5944 6.912 75.2504 7.776C75.9064 8.64 76.8504 9.624 78.0824 10.728C78.4344 11.032 78.8184 11.384 79.2344 11.784C79.6664 12.168 80.1544 12.6 80.6984 13.08C81.2584 13.56 81.8824 14.088 82.5704 14.664C83.0824 15.08 83.6024 15.52 84.1304 15.984C84.6744 16.448 85.2264 16.848 85.7864 17.184C86.3624 17.52 86.9544 17.712 87.5624 17.76V18C87.2584 18 86.8184 17.992 86.2424 17.976C85.6824 17.96 85.0584 17.848 84.3704 17.64C83.6824 17.432 82.9944 17.048 82.3064 16.488C81.6984 15.992 81.1384 15.536 80.6264 15.12C80.1304 14.688 79.6664 14.296 79.2344 13.944C78.8184 13.576 78.4264 13.232 78.0584 12.912C77.6904 12.576 77.3304 12.248 76.9784 11.928C76.0504 11.064 75.2584 10.288 74.6024 9.6C73.9624 8.896 73.4664 8.184 73.1144 7.464C72.7784 6.728 72.6104 5.896 72.6104 4.968C72.6104 4.376 72.7224 3.832 72.9464 3.336C73.1704 2.84 73.4904 2.408 73.9064 2.04C74.3384 1.672 74.8504 1.384 75.4424 1.176C76.0344 0.967999 76.6984 0.863999 77.4344 0.863999ZM84.0584 10.104C84.2344 10.984 84.2824 11.824 84.2024 12.624C84.1224 13.424 83.9224 14.168 83.6024 14.856C83.2984 15.528 82.8744 16.12 82.3304 16.632C81.8024 17.144 81.1704 17.544 80.4344 17.832C79.6984 18.104 78.8744 18.24 77.9624 18.24C77.0344 18.24 76.1784 18.16 75.3944 18C74.6264 17.84 73.9464 17.608 73.3544 17.304C72.7624 16.984 72.2584 16.6 71.8424 16.152C71.4424 15.688 71.1384 15.168 70.9304 14.592C70.7224 14 70.6184 13.344 70.6184 12.624C70.6184 12.16 70.6664 11.736 70.7624 11.352C70.8744 10.952 71.0264 10.584 71.2184 10.248C71.4104 9.912 71.6344 9.616 71.8904 9.36C72.1624 9.088 72.4584 8.84 72.7784 8.616C73.0984 8.392 73.4424 8.2 73.8104 8.04L74.1464 8.568C73.8264 8.824 73.5544 9.112 73.3304 9.432C73.1064 9.736 72.9224 10.064 72.7784 10.416C72.6344 10.752 72.5304 11.112 72.4664 11.496C72.4024 11.864 72.3704 12.24 72.3704 12.624C72.3704 13.344 72.4904 14.008 72.7304 14.616C72.9864 15.208 73.3464 15.72 73.8104 16.152C74.2904 16.584 74.8744 16.92 75.5624 17.16C76.2664 17.4 77.0664 17.52 77.9624 17.52C78.7784 17.52 79.4984 17.36 80.1224 17.04C80.7624 16.704 81.2904 16.272 81.7064 15.744C82.1384 15.2 82.4584 14.6 82.6664 13.944C82.8744 13.288 82.9624 12.632 82.9304 11.976C82.8984 11.304 82.7384 10.68 82.4504 10.104C82.2904 9.784 82.0824 9.52 81.8264 9.312C81.5864 9.104 81.2744 9 80.8904 9H80.5304V8.76H85.3064V9H84.9464C84.5944 9 84.3384 9.104 84.1784 9.312C84.0344 9.52 83.9944 9.784 84.0584 10.104ZM98.3501 8.76L105.166 16.776C105.502 17.096 105.838 17.336 106.174 17.496C106.526 17.656 106.95 17.744 107.446 17.76V18H106.414C106.254 18 106.022 17.992 105.718 17.976C105.43 17.944 105.11 17.888 104.758 17.808C104.422 17.712 104.078 17.576 103.726 17.4C103.39 17.208 103.086 16.952 102.814 16.632C102.814 16.632 102.67 16.464 102.382 16.128C102.11 15.792 101.75 15.36 101.302 14.832C100.87 14.304 100.406 13.744 99.9101 13.152C99.4301 12.544 98.9661 11.976 98.5181 11.448C98.0861 10.92 97.7261 10.488 97.4381 10.152C97.1661 9.816 97.0301 9.648 97.0301 9.648L98.3501 8.76ZM105.286 1.368L98.1101 9.648H97.0301L103.63 1.368H105.286ZM106.942 1.2V1.416H106.846C106.318 1.416 105.822 1.52 105.358 1.728C104.91 1.936 104.526 2.224 104.206 2.592L102.694 2.544C102.902 2.272 102.934 2.016 102.79 1.776C102.662 1.536 102.438 1.416 102.118 1.416H101.878V1.2H106.846H106.942ZM96.2621 1.2V18H94.7021V1.2H96.2621ZM94.7741 16.248V18H92.8541V17.76C92.8541 17.76 92.9021 17.76 92.9981 17.76C93.1101 17.76 93.1661 17.76 93.1661 17.76C93.5821 17.76 93.9341 17.616 94.2221 17.328C94.5261 17.024 94.6861 16.664 94.7021 16.248H94.7741ZM94.7741 2.952H94.7021C94.6861 2.536 94.5261 2.184 94.2221 1.896C93.9341 1.592 93.5821 1.44 93.1661 1.44C93.1661 1.44 93.1101 1.44 92.9981 1.44C92.9021 1.44 92.8541 1.44 92.8541 1.44V1.2H94.7741V2.952ZM96.1901 16.248H96.2621C96.2781 16.664 96.4301 17.024 96.7181 17.328C97.0221 17.616 97.3821 17.76 97.7981 17.76C97.7981 17.76 97.8461 17.76 97.9421 17.76C98.0381 17.76 98.0941 17.76 98.1101 17.76V18H96.1901V16.248ZM96.1901 2.952V1.2H98.1101V1.44C98.0941 1.44 98.0381 1.44 97.9421 1.44C97.8461 1.44 97.7981 1.44 97.7981 1.44C97.3821 1.44 97.0221 1.592 96.7181 1.896C96.4301 2.184 96.2781 2.536 96.2621 2.952H96.1901Z" fill="#161616"/>
</svg>
