
        <svg width="54" height="41" viewBox="0 0 54 41" fill="none" xmlns="http://www.w3.org/2000/svg">
        <path d="M51.8443 20.5C51.8443 30.0749 43.8593 37.8443 34 37.8443C24.1407 37.8443 16.1557 30.0749 16.1557 20.5C16.1557 10.9251 24.1407 3.15568 34 3.15568C43.8593 3.15568 51.8443 10.9251 51.8443 20.5Z" stroke="#C8B3A9" stroke-width="0.311358"/>
        <path d="M49.7356 23.8344C47.8449 32.642 39.1192 38.2397 30.2446 36.3345C21.37 34.4294 15.7107 25.7436 17.6014 16.936C19.4922 8.12848 28.2178 2.53078 37.0924 4.43595C45.9671 6.34111 51.6264 15.0269 49.7356 23.8344Z" stroke="#C8B3A9" stroke-width="0.3"/>
        <path d="M50.5351 23.8627C48.5755 32.991 39.5427 38.7944 30.3583 36.8228C21.174 34.8511 15.319 25.8516 17.2786 16.7234C19.2382 7.59507 28.271 1.79162 37.4554 3.76328C46.6397 5.73493 52.4947 14.7344 50.5351 23.8627Z" stroke="#C8B3A9" stroke-width="0.312885"/>
        <path d="M36.9384 21.5899C37.0711 21.4572 37.0711 21.242 36.9384 21.1093L34.776 18.9469C34.6433 18.8142 34.4281 18.8142 34.2954 18.9469C34.1627 19.0796 34.1627 19.2947 34.2954 19.4274L36.2176 21.3496L34.2954 23.2718C34.1627 23.4045 34.1627 23.6196 34.2954 23.7523C34.4281 23.885 34.6433 23.885 34.776 23.7523L36.9384 21.5899ZM0 21.6894H36.6981V21.0098H0V21.6894Z" fill="#161616"/>
        </svg>


