
        <svg width="54" height="41" viewBox="0 0 54 41" fill="none" xmlns="http://www.w3.org/2000/svg">
        <path d="M2.15568 20.5C2.15568 30.0749 10.1407 37.8443 20 37.8443C29.8593 37.8443 37.8443 30.0749 37.8443 20.5C37.8443 10.9251 29.8593 3.15568 20 3.15568C10.1407 3.15568 2.15568 10.9251 2.15568 20.5Z" stroke="#C8B3A9" stroke-width="0.311358"/>
        <path d="M4.26438 23.8344C6.15514 32.642 14.8808 38.2397 23.7554 36.3345C32.63 34.4294 38.2893 25.7436 36.3986 16.936C34.5078 8.12848 25.7822 2.53078 16.9076 4.43595C8.03294 6.34111 2.37361 15.0269 4.26438 23.8344Z" stroke="#C8B3A9" stroke-width="0.3"/>
        <path d="M3.46492 23.8627C5.42454 32.991 14.4573 38.7944 23.6417 36.8228C32.826 34.8511 38.681 25.8516 36.7214 16.7234C34.7618 7.59507 25.729 1.79162 16.5446 3.76328C7.36026 5.73493 1.50531 14.7344 3.46492 23.8627Z" stroke="#C8B3A9" stroke-width="0.312885"/>
        <path d="M17.0616 21.5899C16.9289 21.4572 16.9289 21.242 17.0616 21.1093L19.224 18.9469C19.3567 18.8142 19.5719 18.8142 19.7046 18.9469C19.8373 19.0796 19.8373 19.2947 19.7046 19.4274L17.7824 21.3496L19.7046 23.2718C19.8373 23.4045 19.8373 23.6196 19.7046 23.7523C19.5719 23.885 19.3567 23.885 19.224 23.7523L17.0616 21.5899ZM54 21.6894H17.3019V21.0098H54V21.6894Z" fill="#161616"/>
        </svg>

